<svg xmlns="http://www.w3.org/2000/svg" width="35.4" height="35.4" viewBox="0 0 35.4 35.4">
  <g id="send" transform="translate(17.671 -1.903) rotate(45)">
    <path id="Path_163" data-name="Path 163" d="M17.085,26.347A2.7,2.7,0,0,1,14.738,24.9l-4.084-7.463a.939.939,0,0,0-.4-.4L2.792,13.017a2.746,2.746,0,0,1,.493-5.034L22.729,1.493h0a2.758,2.758,0,0,1,3.52,3.52L19.713,24.469a2.711,2.711,0,0,1-2.347,1.866ZM23.234,3.171,3.79,9.661a.986.986,0,0,0-.681.857.974.974,0,0,0,.516.95l7.463,4.025A2.687,2.687,0,0,1,12.2,16.607l3.99,7.463a.974.974,0,0,0,.95.516A.986.986,0,0,0,18,23.906L24.524,4.462a.986.986,0,0,0-1.291-1.291Z" transform="translate(0 0)" fill="#373a43"/>
    <path id="Path_164" data-name="Path 164" d="M9.8,17.388a.833.833,0,0,1-.622-.258.868.868,0,0,1,0-1.244L22.978,2.04A.913.913,0,1,1,24.269,3.33L10.423,17.13a.868.868,0,0,1-.622.258Z" transform="translate(1.311 0.076)" fill="#373a43"/>
  </g>
</svg>
